<svg id="visual" viewBox="0 0 960 460" width="960" height="460" xmlns="http://www.w3.org/2000/svg" xmlns:xlink="http://www.w3.org/1999/xlink" version="1.1"><rect x="0" y="0" width="960" height="460" fill="#001220"></rect><path d="M0 337L22.8 326.7C45.7 316.3 91.3 295.7 137 290.7C182.7 285.7 228.3 296.3 274 303.2C319.7 310 365.3 313 411.2 316C457 319 503 322 548.8 316.3C594.7 310.7 640.3 296.3 686 294.5C731.7 292.7 777.3 303.3 823 306.5C868.7 309.7 914.3 305.3 937.2 303.2L960 301L960 461L937.2 461C914.3 461 868.7 461 823 461C777.3 461 731.7 461 686 461C640.3 461 594.7 461 548.8 461C503 461 457 461 411.2 461C365.3 461 319.7 461 274 461C228.3 461 182.7 461 137 461C91.3 461 45.7 461 22.8 461L0 461Z" fill="#fa7268"></path><path d="M0 310L22.8 313C45.7 316 91.3 322 137 329.8C182.7 337.7 228.3 347.3 274 353.3C319.7 359.3 365.3 361.7 411.2 360.7C457 359.7 503 355.3 548.8 354.8C594.7 354.3 640.3 357.7 686 352.3C731.7 347 777.3 333 823 330.8C868.7 328.7 914.3 338.3 937.2 343.2L960 348L960 461L937.2 461C914.3 461 868.7 461 823 461C777.3 461 731.7 461 686 461C640.3 461 594.7 461 548.8 461C503 461 457 461 411.2 461C365.3 461 319.7 461 274 461C228.3 461 182.7 461 137 461C91.3 461 45.7 461 22.8 461L0 461Z" fill="#ef5f67"></path><path d="M0 377L22.8 370.5C45.7 364 91.3 351 137 344.3C182.7 337.7 228.3 337.3 274 339.2C319.7 341 365.3 345 411.2 352.7C457 360.3 503 371.7 548.8 378.2C594.7 384.7 640.3 386.3 686 384.2C731.7 382 777.3 376 823 370.2C868.7 364.3 914.3 358.7 937.2 355.8L960 353L960 461L937.2 461C914.3 461 868.7 461 823 461C777.3 461 731.7 461 686 461C640.3 461 594.7 461 548.8 461C503 461 457 461 411.2 461C365.3 461 319.7 461 274 461C228.3 461 182.7 461 137 461C91.3 461 45.7 461 22.8 461L0 461Z" fill="#e34c67"></path><path d="M0 391L22.8 394.3C45.7 397.7 91.3 404.3 137 403.8C182.7 403.3 228.3 395.7 274 388.5C319.7 381.3 365.3 374.7 411.2 376.8C457 379 503 390 548.8 394.8C594.7 399.7 640.3 398.3 686 400.5C731.7 402.7 777.3 408.3 823 410.7C868.7 413 914.3 412 937.2 411.5L960 411L960 461L937.2 461C914.3 461 868.7 461 823 461C777.3 461 731.7 461 686 461C640.3 461 594.7 461 548.8 461C503 461 457 461 411.2 461C365.3 461 319.7 461 274 461C228.3 461 182.7 461 137 461C91.3 461 45.7 461 22.8 461L0 461Z" fill="#d53867"></path><path d="M0 432L22.8 427C45.7 422 91.3 412 137 408.7C182.7 405.3 228.3 408.7 274 414.3C319.7 420 365.3 428 411.2 429.8C457 431.7 503 427.3 548.8 425.5C594.7 423.7 640.3 424.3 686 426.5C731.7 428.7 777.3 432.3 823 430.7C868.7 429 914.3 422 937.2 418.5L960 415L960 461L937.2 461C914.3 461 868.7 461 823 461C777.3 461 731.7 461 686 461C640.3 461 594.7 461 548.8 461C503 461 457 461 411.2 461C365.3 461 319.7 461 274 461C228.3 461 182.7 461 137 461C91.3 461 45.7 461 22.8 461L0 461Z" fill="#c62368"></path></svg>