<svg id="visual" viewBox="0 0 960 460" width="960" height="460" xmlns="http://www.w3.org/2000/svg" xmlns:xlink="http://www.w3.org/1999/xlink" version="1.1"><rect x="0" y="0" width="960" height="460" fill="#9e9494"></rect><path d="M0 337L137 288L274 309L411 289L549 273L686 327L823 300L960 327L960 461L823 461L686 461L549 461L411 461L274 461L137 461L0 461Z" fill="#cccccc"></path><path d="M0 364L137 349L274 337L411 360L549 313L686 320L823 353L960 309L960 461L823 461L686 461L549 461L411 461L274 461L137 461L0 461Z" fill="#95989d"></path><path d="M0 377L137 343L274 342L411 346L549 355L686 356L823 338L960 357L960 461L823 461L686 461L549 461L411 461L274 461L137 461L0 461Z" fill="#616771"></path><path d="M0 386L137 404L274 375L411 385L549 368L686 413L823 395L960 388L960 461L823 461L686 461L549 461L411 461L274 461L137 461L0 461Z" fill="#303a48"></path><path d="M0 433L137 417L274 415L411 438L549 407L686 421L823 430L960 409L960 461L823 461L686 461L549 461L411 461L274 461L137 461L0 461Z" fill="#001122"></path></svg>