<svg id="visual" viewBox="0 0 960 540" width="960" height="540" xmlns="http://www.w3.org/2000/svg" xmlns:xlink="http://www.w3.org/1999/xlink" version="1.1"><rect x="0" y="0" width="960" height="540" fill="#69777f"></rect><path d="M0 398L26.7 381.8C53.3 365.7 106.7 333.3 160 316.5C213.3 299.7 266.7 298.3 320 317.8C373.3 337.3 426.7 377.7 480 401C533.3 424.3 586.7 430.7 640 432.8C693.3 435 746.7 433 800 426.3C853.3 419.7 906.7 408.3 933.3 402.7L960 397L960 541L933.3 541C906.7 541 853.3 541 800 541C746.7 541 693.3 541 640 541C586.7 541 533.3 541 480 541C426.7 541 373.3 541 320 541C266.7 541 213.3 541 160 541C106.7 541 53.3 541 26.7 541L0 541Z" fill="#202327" stroke-linecap="round" stroke-linejoin="miter"></path></svg>